<svg width="25" height="25" viewBox="0 0 25 25" fill="none" xmlns="http://www.w3.org/2000/svg">
<path d="M6.87714 1.5H18.1229C19.8416 1.5 21.16 2.09961 22.0538 3.05962C22.9551 4.02771 23.5 5.44472 23.5 7.20219V17.7978C23.5 19.5553 22.9551 20.9723 22.0538 21.9404C21.16 22.9004 19.8416 23.5 18.1229 23.5H6.87714C5.15841 23.5 3.83997 22.9004 2.94619 21.9404C2.04489 20.9723 1.5 19.5553 1.5 17.7978V7.20219C1.5 5.44595 2.04702 4.02877 2.95004 3.06009C3.84579 2.09921 5.16476 1.5 6.87714 1.5Z" stroke="#C6CFDC" stroke-width="2" stroke-linecap="round" stroke-linejoin="round"/>
<path d="M12.5001 8.09277V16.8844" stroke="#C6CFDC" stroke-width="2" stroke-linecap="round" stroke-linejoin="round"/>
<path d="M16.8999 12.4886H8.09985" stroke="#C6CFDC" stroke-width="2" stroke-linecap="round" stroke-linejoin="round"/>
</svg>
