<svg width="23" height="19" viewBox="0 0 23 19" fill="none" xmlns="http://www.w3.org/2000/svg">
<path d="M1.5 8.5H7.5C7.76522 8.5 8.01957 8.39464 8.20711 8.20711C8.39464 8.01957 8.5 7.76522 8.5 7.5V1.5C8.5 1.23478 8.39464 0.98043 8.20711 0.792893C8.01957 0.605357 7.76522 0.5 7.5 0.5H1.5C1.23478 0.5 0.98043 0.605357 0.792893 0.792893C0.605357 0.98043 0.5 1.23478 0.5 1.5V7.5C0.5 7.76522 0.605357 8.01957 0.792893 8.20711C0.98043 8.39464 1.23478 8.5 1.5 8.5ZM2.5 2.5H6.5V6.5H2.5V2.5ZM7.5 18.5C7.76522 18.5 8.01957 18.3946 8.20711 18.2071C8.39464 18.0196 8.5 17.7652 8.5 17.5V11.5C8.5 11.2348 8.39464 10.9804 8.20711 10.7929C8.01957 10.6054 7.76522 10.5 7.5 10.5H1.5C1.23478 10.5 0.98043 10.6054 0.792893 10.7929C0.605357 10.9804 0.5 11.2348 0.5 11.5V17.5C0.5 17.7652 0.605357 18.0196 0.792893 18.2071C0.98043 18.3946 1.23478 18.5 1.5 18.5H7.5ZM2.5 12.5H6.5V16.5H2.5V12.5ZM22.5 4.5C22.5 4.76522 22.3946 5.01957 22.2071 5.20711C22.0196 5.39464 21.7652 5.5 21.5 5.5H11.5C11.2348 5.5 10.9804 5.39464 10.7929 5.20711C10.6054 5.01957 10.5 4.76522 10.5 4.5C10.5 4.23478 10.6054 3.98043 10.7929 3.79289C10.9804 3.60536 11.2348 3.5 11.5 3.5H21.5C21.7652 3.5 22.0196 3.60536 22.2071 3.79289C22.3946 3.98043 22.5 4.23478 22.5 4.5ZM22.5 14.5C22.5 14.7652 22.3946 15.0196 22.2071 15.2071C22.0196 15.3946 21.7652 15.5 21.5 15.5H11.5C11.2348 15.5 10.9804 15.3946 10.7929 15.2071C10.6054 15.0196 10.5 14.7652 10.5 14.5C10.5 14.2348 10.6054 13.9804 10.7929 13.7929C10.9804 13.6054 11.2348 13.5 11.5 13.5H21.5C21.7652 13.5 22.0196 13.6054 22.2071 13.7929C22.3946 13.9804 22.5 14.2348 22.5 14.5Z" fill="#007FFF"/>
</svg>
