<svg width="24" height="24" viewBox="0 0 24 24" fill="none" xmlns="http://www.w3.org/2000/svg">
<path d="M6.85714 18.2222C6.85714 19.2 7.62857 20 8.57143 20H15.4286C16.3714 20 17.1429 19.2 17.1429 18.2222V9.33333C17.1429 8.35556 16.3714 7.55556 15.4286 7.55556H8.57143C7.62857 7.55556 6.85714 8.35556 6.85714 9.33333V18.2222ZM17.1429 4.88889H15L14.3914 4.25778C14.2371 4.09778 14.0143 4 13.7914 4H10.2086C9.98571 4 9.76286 4.09778 9.60857 4.25778L9 4.88889H6.85714C6.38571 4.88889 6 5.28889 6 5.77778C6 6.26667 6.38571 6.66667 6.85714 6.66667H17.1429C17.6143 6.66667 18 6.26667 18 5.77778C18 5.28889 17.6143 4.88889 17.1429 4.88889Z" fill="#FF5E5E"/>
</svg>
