<svg width="82" height="80" viewBox="0 0 82 80" fill="none" xmlns="http://www.w3.org/2000/svg">
<g clip-path="url(#clip0_14_776)">
<path d="M52.0569 17.9917H29.9615C29.458 17.9923 28.9753 18.1925 28.6192 18.5483C28.2632 18.9042 28.0629 19.3866 28.0623 19.8899V68.9713L27.8091 69.0485L22.3887 70.7075C22.1318 70.7858 21.8543 70.759 21.6172 70.6331C21.3801 70.5071 21.2026 70.2922 21.1238 70.0356L5.00074 17.3981C4.92228 17.1414 4.94902 16.864 5.07509 16.627C5.20116 16.3899 5.41624 16.2126 5.67307 16.1339L14.0258 13.5777L38.2408 6.16959L46.5935 3.61333C46.7206 3.57423 46.8542 3.56057 46.9866 3.57312C47.119 3.58568 47.2477 3.62421 47.3652 3.68651C47.4826 3.7488 47.5867 3.83364 47.6713 3.93618C47.756 4.03871 47.8196 4.15691 47.8584 4.28403L51.9797 17.7386L52.0569 17.9917Z" fill="#F5F7F9"/>
<path d="M56.8784 17.7386L51.9114 1.5228C51.8287 1.25261 51.6936 1.00135 51.5138 0.783368C51.334 0.565387 51.1129 0.38496 50.8633 0.252397C50.6137 0.119833 50.3403 0.0377293 50.059 0.0107812C49.7776 -0.0161669 49.4936 0.0125683 49.2233 0.0953419L37.4799 3.68802L13.2662 11.0974L1.52272 14.6913C0.977176 14.8588 0.520388 15.2357 0.252617 15.7394C-0.0151547 16.2431 -0.0720331 16.8324 0.0944688 17.3779L17.0709 72.7969C17.2062 73.2373 17.4791 73.6227 17.8496 73.8967C18.2202 74.1707 18.6688 74.3188 19.1297 74.3192C19.343 74.3193 19.5551 74.2873 19.7589 74.2243L27.8091 71.7617L28.0623 71.6833V71.4188L27.8091 71.496L19.6843 73.9826C19.2027 74.1293 18.6826 74.0792 18.238 73.8431C17.7935 73.6071 17.4607 73.2044 17.3128 72.7235L0.33762 17.3033C0.264322 17.065 0.238775 16.8146 0.262443 16.5664C0.28611 16.3182 0.358525 16.0771 0.475544 15.8569C0.592564 15.6368 0.751889 15.4418 0.944393 15.2833C1.1369 15.1248 1.3588 15.0057 1.5974 14.933L13.3409 11.3391L37.5546 3.931L49.2981 0.33705C49.4791 0.28185 49.6672 0.253704 49.8564 0.253528C50.2625 0.254439 50.6576 0.385284 50.9839 0.626897C51.3102 0.86851 51.5505 1.20819 51.6696 1.5962L56.6138 17.7386L56.6924 17.9917H56.9557L56.8784 17.7386Z" fill="#C6CFDC"/>
<path d="M15.5331 16.1755C15.289 16.1753 15.0515 16.097 14.8552 15.952C14.659 15.807 14.5145 15.6029 14.4428 15.3698L12.8119 10.0457C12.7681 9.9027 12.7529 9.75246 12.7672 9.60357C12.7814 9.45468 12.8249 9.31006 12.8951 9.17797C12.9653 9.04588 13.0609 8.92891 13.1763 8.83374C13.2918 8.73856 13.4249 8.66705 13.568 8.62329L35.8443 1.80696C36.1333 1.71883 36.4455 1.74889 36.7123 1.89054C36.9791 2.0322 37.1789 2.27388 37.2676 2.56254L38.8984 7.88668C38.9865 8.17551 38.9564 8.48748 38.8147 8.75416C38.673 9.02083 38.4312 9.22043 38.1424 9.30916L15.866 16.1255C15.7581 16.1586 15.6459 16.1754 15.5331 16.1755Z" fill="#007FFF"/>
<path d="M24.0762 5.68885C25.4748 5.68885 26.6085 4.55571 26.6085 3.1579C26.6085 1.7601 25.4748 0.626953 24.0762 0.626953C22.6777 0.626953 21.5439 1.7601 21.5439 3.1579C21.5439 4.55571 22.6777 5.68885 24.0762 5.68885Z" fill="#007FFF"/>
<path d="M24.0762 4.76053C24.9618 4.76053 25.6797 4.04298 25.6797 3.15785C25.6797 2.27272 24.9618 1.55518 24.0762 1.55518C23.1906 1.55518 22.4727 2.27272 22.4727 3.15785C22.4727 4.04298 23.1906 4.76053 24.0762 4.76053Z" fill="white"/>
<path d="M76.3023 73.6726H33.5066C33.2213 73.6722 32.9478 73.5588 32.746 73.3571C32.5442 73.1555 32.4307 72.8821 32.4304 72.5969V21.3452C32.4307 21.06 32.5442 20.7866 32.746 20.5849C32.9478 20.3833 33.2213 20.2698 33.5066 20.2695H76.3023C76.5876 20.2699 76.8611 20.3833 77.0629 20.5849C77.2647 20.7866 77.3782 21.06 77.3785 21.3452V72.5969C77.3782 72.8821 77.2647 73.1555 77.0629 73.3571C76.8611 73.5588 76.5876 73.6722 76.3023 73.6726Z" fill="#C6CFDC" fill-opacity="0.5"/>
<path d="M56.6138 17.7385H29.9615C29.3909 17.7393 28.8439 17.9662 28.4404 18.3695C28.0369 18.7728 27.8099 19.3195 27.8091 19.8898V71.4959L28.0623 71.4187V19.8898C28.0629 19.3866 28.2632 18.9041 28.6193 18.5483C28.9753 18.1924 29.458 17.9922 29.9615 17.9916H56.6923L56.6138 17.7385ZM79.8476 17.7385H29.9615C29.3909 17.7393 28.8439 17.9662 28.4404 18.3695C28.0369 18.7728 27.8099 19.3195 27.8091 19.8898V77.8486C27.8099 78.4189 28.0369 78.9656 28.4404 79.3689C28.8439 79.7722 29.3909 79.9991 29.9615 79.9999H79.8476C80.4182 79.9991 80.9652 79.7722 81.3687 79.3689C81.7722 78.9656 81.9992 78.4189 82 77.8486V19.8898C81.9992 19.3195 81.7722 18.7728 81.3687 18.3695C80.9652 17.9662 80.4182 17.7393 79.8476 17.7385ZM81.7468 77.8486C81.7462 78.3518 81.5459 78.8343 81.1898 79.1901C80.8338 79.546 80.3511 79.7462 79.8476 79.7468H29.9615C29.458 79.7462 28.9753 79.546 28.6193 79.1901C28.2632 78.8343 28.0629 78.3518 28.0623 77.8486V19.8898C28.0629 19.3866 28.2632 18.9041 28.6193 18.5483C28.9753 18.1924 29.458 17.9922 29.9615 17.9916H79.8476C80.3511 17.9922 80.8338 18.1924 81.1898 18.5483C81.5459 18.9041 81.7462 19.3866 81.7468 19.8898V77.8486Z" fill="#C6CFDC"/>
<path d="M66.553 23.3066H43.256C42.9539 23.3063 42.6642 23.1862 42.4506 22.9727C42.237 22.7592 42.1168 22.4697 42.1165 22.1677V16.5996C42.1168 16.2977 42.237 16.0082 42.4506 15.7947C42.6642 15.5811 42.9539 15.461 43.256 15.4607H66.553C66.8551 15.461 67.1448 15.5811 67.3584 15.7947C67.572 16.0082 67.6922 16.2977 67.6925 16.5996V22.1677C67.6922 22.4697 67.572 22.7592 67.3584 22.9727C67.1448 23.1862 66.8551 23.3063 66.553 23.3066Z" fill="#007FFF"/>
<path d="M54.9046 15.8405C56.3031 15.8405 57.4369 14.7073 57.4369 13.3095C57.4369 11.9117 56.3031 10.7786 54.9046 10.7786C53.5061 10.7786 52.3723 11.9117 52.3723 13.3095C52.3723 14.7073 53.5061 15.8405 54.9046 15.8405Z" fill="#007FFF"/>
<path d="M54.9045 14.851C55.7563 14.851 56.4469 14.1608 56.4469 13.3094C56.4469 12.458 55.7563 11.7678 54.9045 11.7678C54.0526 11.7678 53.3621 12.458 53.3621 13.3094C53.3621 14.1608 54.0526 14.851 54.9045 14.851Z" fill="white"/>
</g>
<defs>
<clipPath id="clip0_14_776">
<rect width="82" height="80" fill="white"/>
</clipPath>
</defs>
</svg>
